<svg width="48" height="48" viewBox="0 0 48 48" fill="none" xmlns="http://www.w3.org/2000/svg">
<path d="M41.484 26.09C40.1291 26.4519 38.7324 26.6342 37.33 26.632C33.06 26.632 29.05 24.972 26.038 21.96C24.061 19.9701 22.6396 17.4971 21.9153 14.7872C21.1911 12.0772 21.1892 9.22487 21.91 6.514C22.0001 6.17506 21.9996 5.81838 21.9083 5.47974C21.8171 5.14109 21.6384 4.83239 21.3903 4.5846C21.1421 4.33681 20.8331 4.15864 20.4943 4.06797C20.1555 3.97729 19.7988 3.9773 19.46 4.068C16.0658 4.97114 12.9693 6.75219 10.482 9.232C2.68601 17.028 2.68601 29.718 10.482 37.518C12.3353 39.3811 14.5395 40.8583 16.9673 41.8642C19.395 42.87 21.9981 43.3845 24.626 43.378C27.2532 43.3854 29.8558 42.8714 32.283 41.8659C34.7102 40.8603 36.9137 39.3832 38.766 37.52C41.2471 35.0318 43.0289 31.9338 43.932 28.538C44.0224 28.1991 44.0221 27.8425 43.9312 27.5037C43.8402 27.165 43.6618 26.8562 43.4138 26.6082C43.1658 26.3602 42.857 26.1818 42.5183 26.0908C42.1796 25.9999 41.8229 25.9996 41.484 26.09ZM35.94 34.692C34.4578 36.1819 32.6948 37.3632 30.7532 38.1675C28.8115 38.9719 26.7297 39.3833 24.628 39.378C22.5255 39.3836 20.4429 38.9721 18.5005 38.1674C16.5581 37.3627 14.7946 36.1808 13.312 34.69C7.07601 28.452 7.07601 18.3 13.312 12.062C14.5187 10.8604 15.9096 9.85911 17.432 9.096C17.2094 11.9741 17.6105 14.8663 18.608 17.5752C19.6056 20.284 21.176 22.7457 23.212 24.792C25.2535 26.835 27.7143 28.4101 30.4244 29.4084C33.1345 30.4067 36.0291 30.8044 38.908 30.574C38.1441 32.0959 37.1422 33.486 35.94 34.692Z" fill="#222222"/>
</svg>
